{
  "source": "C:\\Users\\Peter\\Desktop\\stuff\\MIUN\\quantitative_research\\video_compression\\videos\\UVG\\ReadySteadyGo_1920x1080_120fps_420_8bit_YUV.y4m",
  "output": "C:\\Users\\Peter\\Desktop\\stuff\\MIUN\\quantitative_research\\video_compression\\compressed_videos\\UVG\\h264\\1\\ReadySteadyGo_1920x1080_120fps_420_8bit_YUV_h264.mp4",
  "codec": "h264",
  "ok": "[yuv4mpegpipe @ 000001bf41d66640] Stream #0: not enough frames to estimate rate; consider increasing probesize\nInput #0, yuv4mpegpipe, from 'C:\\Users\\Peter\\Desktop\\stuff\\MIUN\\quantitative_research\\video_compression\\videos\\UVG\\ReadySteadyGo_1920x1080_120fps_420_8bit_YUV.y4m':\n  Duration: 00:00:05.00, start: 0.000000, bitrate: 2985989 kb/s\n  Stream #0:0: Video: rawvideo (I420 / 0x30323449), yuv420p(progressive), 1920x1080, 120 fps, 120 tbr, 120 tbn\n[out#0/mp4 @ 000001bf41d69a00] Codec AVOption b:a (set bitrate (in bits/s)) has not been used for any stream. The most likely reason is either wrong type (e.g. a video option with no video streams) or that it is a private option of some decoder which was not actually used for any stream.\nStream mapping:\n  Stream #0:0 -> #0:0 (rawvideo (native) -> h264 (libx264))\nPress [q] to stop, [?] for help\n[libx264 @ 000001bf41d6cac0] using cpu capabilities: MMX2 SSE2Fast SSSE3 SSE4.2 AVX FMA3 BMI2 AVX2\n[libx264 @ 000001bf41d6cac0] profile High, level 5.1, 4:2:0, 8-bit\n[libx264 @ 000001bf41d6cac0] 264 - core 165 r3222 b35605a - H.264/MPEG-4 AVC codec - Copyleft 2003-2025 - http://www.videolan.org/x264.html - options: cabac=1 ref=5 deblock=1:0:0 analyse=0x3:0x113 me=hex subme=8 psy=1 psy_rd=1.00:0.00 mixed_ref=1 me_range=16 chroma_me=1 trellis=2 8x8dct=1 cqm=0 deadzone=21,11 fast_pskip=1 chroma_qp_offset=-2 threads=18 lookahead_threads=3 sliced_threads=0 nr=0 decimate=1 interlaced=0 bluray_compat=0 constrained_intra=0 bframes=3 b_pyramid=2 b_adapt=1 b_bias=0 direct=3 weightb=1 open_gop=0 weightp=2 keyint=250 keyint_min=25 scenecut=40 intra_refresh=0 rc_lookahead=50 rc=cbr mbtree=1 bitrate=1000 ratetol=1.0 qcomp=0.60 qpmin=0 qpmax=69 qpstep=4 vbv_maxrate=1000 vbv_bufsize=1000 nal_hrd=none filler=0 ip_ratio=1.40 aq=1:1.00\nOutput #0, mp4, to 'C:\\Users\\Peter\\Desktop\\stuff\\MIUN\\quantitative_research\\video_compression\\compressed_videos\\UVG\\h264\\1\\ReadySteadyGo_1920x1080_120fps_420_8bit_YUV_h264.mp4':\n  Metadata:\n    encoder         : Lavf62.3.100\n  Stream #0:0: Video: h264 (avc1 / 0x31637661), yuv420p(tv, progressive), 1920x1080, q=2-31, 1000 kb/s, 120 fps, 15360 tbn\n    Metadata:\n      encoder         : Lavc62.11.100 libx264\n    Side data:\n      cpb: bitrate max/min/avg: 1000000/0/1000000 buffer size: 1000000 vbv_delay: N/A\nframe=    0 fps=0.0 q=0.0 size=       0KiB time=N/A bitrate=N/A speed=N/A elapsed=0:00:00.52    \nframe=    0 fps=0.0 q=0.0 size=       0KiB time=N/A bitrate=N/A speed=N/A elapsed=0:00:01.03    \nframe=    0 fps=0.0 q=0.0 size=       0KiB time=N/A bitrate=N/A speed=N/A elapsed=0:00:01.55    \nframe=   22 fps= 11 q=53.0 size=       0KiB time=00:00:00.15 bitrate=   2.4kbits/s speed=0.076x elapsed=0:00:02.08    \nframe=   41 fps= 16 q=54.0 size=       0KiB time=00:00:00.31 bitrate=   1.2kbits/s speed=0.122x elapsed=0:00:02.59    \nframe=   60 fps= 19 q=53.0 size=       0KiB time=00:00:00.48 bitrate=   0.8kbits/s speed=0.156x elapsed=0:00:03.10    \nframe=   80 fps= 22 q=53.0 size=       0KiB time=00:00:00.65 bitrate=   0.6kbits/s speed=0.179x elapsed=0:00:03.63    \nframe=  100 fps= 24 q=54.0 size=       0KiB time=00:00:00.81 bitrate=   0.5kbits/s speed=0.196x elapsed=0:00:04.15    \nframe=  120 fps= 26 q=54.0 size=       0KiB time=00:00:00.98 bitrate=   0.4kbits/s speed=0.21x elapsed=0:00:04.67    \nframe=  140 fps= 27 q=55.0 size=       0KiB time=00:00:01.15 bitrate=   0.3kbits/s speed=0.222x elapsed=0:00:05.18    \nframe=  157 fps= 28 q=55.0 size=       0KiB time=00:00:01.29 bitrate=   0.3kbits/s speed=0.227x elapsed=0:00:05.70    \nframe=  173 fps= 28 q=56.0 size=       0KiB time=00:00:01.42 bitrate=   0.3kbits/s speed=0.229x elapsed=0:00:06.22    \nframe=  193 fps= 29 q=56.0 size=       0KiB time=00:00:01.59 bitrate=   0.2kbits/s speed=0.236x elapsed=0:00:06.73    \nframe=  211 fps= 29 q=56.0 size=       0KiB time=00:00:01.74 bitrate=   0.2kbits/s speed=0.24x elapsed=0:00:07.24    \nframe=  231 fps= 30 q=57.0 size=     256KiB time=00:00:01.90 bitrate=1099.1kbits/s speed=0.245x elapsed=0:00:07.77    \nframe=  245 fps= 30 q=57.0 size=     256KiB time=00:00:02.02 bitrate=1035.8kbits/s speed=0.244x elapsed=0:00:08.29    \nframe=  264 fps= 30 q=58.0 size=     256KiB time=00:00:02.16 bitrate= 968.1kbits/s speed=0.246x elapsed=0:00:08.81    \nframe=  282 fps= 30 q=59.0 size=     256KiB time=00:00:02.32 bitrate= 902.2kbits/s speed=0.249x elapsed=0:00:09.33    \nframe=  297 fps= 30 q=61.0 size=     256KiB time=00:00:02.45 bitrate= 853.2kbits/s speed=0.249x elapsed=0:00:09.85    \nframe=  316 fps= 30 q=62.0 size=     256KiB time=00:00:02.61 bitrate= 801.6kbits/s speed=0.252x elapsed=0:00:10.37    \nframe=  336 fps= 31 q=63.0 size=     256KiB time=00:00:02.78 bitrate= 753.6kbits/s speed=0.255x elapsed=0:00:10.90    \nframe=  353 fps= 31 q=64.0 size=     256KiB time=00:00:02.92 bitrate= 717.1kbits/s speed=0.256x elapsed=0:00:11.42    \nframe=  370 fps= 31 q=65.0 size=     256KiB time=00:00:03.06 bitrate= 684.0kbits/s speed=0.257x elapsed=0:00:11.93    \nframe=  387 fps= 31 q=65.0 size=     256KiB time=00:00:03.20 bitrate= 653.8kbits/s speed=0.258x elapsed=0:00:12.45    \nframe=  405 fps= 31 q=66.0 size=     256KiB time=00:00:03.35 bitrate= 624.6kbits/s speed=0.259x elapsed=0:00:12.97    \nframe=  421 fps= 31 q=66.0 size=     256KiB time=00:00:03.49 bitrate= 600.7kbits/s speed=0.259x elapsed=0:00:13.49    \nframe=  442 fps= 32 q=66.0 size=     256KiB time=00:00:03.66 bitrate= 572.1kbits/s speed=0.262x elapsed=0:00:14.01    \nframe=  465 fps= 32 q=65.0 size=     512KiB time=00:00:03.85 bitrate=1087.2kbits/s speed=0.265x elapsed=0:00:14.53    \nframe=  483 fps= 32 q=63.0 size=     512KiB time=00:00:04.00 bitrate=1046.5kbits/s speed=0.266x elapsed=0:00:15.04    \nframe=  503 fps= 32 q=64.0 size=     512KiB time=00:00:04.17 bitrate=1004.7kbits/s speed=0.268x elapsed=0:00:15.56    \nframe=  525 fps= 33 q=62.0 size=     512KiB time=00:00:04.35 bitrate= 964.3kbits/s speed=0.271x elapsed=0:00:16.07    \nframe=  567 fps= 34 q=62.0 size=     512KiB time=00:00:04.68 bitrate= 895.7kbits/s speed=0.282x elapsed=0:00:16.60    \n[mp4 @ 000001bf41d69b40] Starting second pass: moving the moov atom to the beginning of the file\n[out#0/mp4 @ 000001bf41d69a00] video:627KiB audio:0KiB subtitle:0KiB other streams:0KiB global headers:0KiB muxing overhead: 1.214939%\nframe=  600 fps= 35 q=-1.0 Lsize=     634KiB time=00:00:04.98 bitrate=1042.5kbits/s speed=0.294x elapsed=0:00:16.94    \n[libx264 @ 000001bf41d6cac0] frame I:3     Avg QP:50.69  size:  6786\n[libx264 @ 000001bf41d6cac0] frame P:188   Avg QP:50.84  size:  2282\n[libx264 @ 000001bf41d6cac0] frame B:409   Avg QP:50.34  size:   468\n[libx264 @ 000001bf41d6cac0] consecutive B-frames:  1.7% 16.7% 17.0% 64.7%\n[libx264 @ 000001bf41d6cac0] mb I  I16..4: 63.3% 36.7%  0.0%\n[libx264 @ 000001bf41d6cac0] mb P  I16..4: 10.3%  1.4%  0.0%  P16..4:  8.3%  0.2%  2.3%  0.0%  0.0%    skip:77.5%\n[libx264 @ 000001bf41d6cac0] mb B  I16..4:  0.0%  0.0%  0.0%  B16..8:  5.3%  0.0%  0.0%  direct: 0.0%  skip:94.7%  L0:28.9% L1:71.1% BI: 0.0%\n[libx264 @ 000001bf41d6cac0] 8x8 transform intra:14.6% inter:97.4%\n[libx264 @ 000001bf41d6cac0] direct mvs  spatial:82.6% temporal:17.4%\n[libx264 @ 000001bf41d6cac0] coded y,uvDC,uvAC intra: 0.6% 12.9% 0.0% inter: 0.0% 0.3% 0.0%\n[libx264 @ 000001bf41d6cac0] i16 v,h,dc,p: 71% 23%  3%  3%\n[libx264 @ 000001bf41d6cac0] i8 v,h,dc,ddl,ddr,vr,hd,vl,hu:  8%  4% 76%  2%  2%  2%  2%  2%  2%\n[libx264 @ 000001bf41d6cac0] i4 v,h,dc,ddl,ddr,vr,hd,vl,hu: 50%  9%  9%  6%  2%  6%  4%  2% 11%\n[libx264 @ 000001bf41d6cac0] i8c dc,h,v,p: 97%  2%  1%  0%\n[libx264 @ 000001bf41d6cac0] Weighted P-Frames: Y:0.0% UV:0.0%\n[libx264 @ 000001bf41d6cac0] ref P L0: 70.0%  0.6% 17.0%  6.3%  6.0%  0.2%\n[libx264 @ 000001bf41d6cac0] ref B L0: 80.8% 11.9%  6.0%  1.3%\n[libx264 @ 000001bf41d6cac0] ref B L1: 95.9%  4.1%\n[libx264 @ 000001bf41d6cac0] kb/s:1025.33\n",
  "seconds": 17.177867650985718,
  "probe_out": {}
}